<svg xmlns="http://www.w3.org/2000/svg" viewBox="0 0 24 24" fill="#333" width="24" height="24">
  <path d="M12 .5C5.65.5.5 5.65.5 12c0 5.1 3.3 9.4 7.9 10.9.6.1.8-.3.8-.6v-2.1c-3.2.7-3.9-1.4-3.9-1.4-.5-1.2-1.2-1.5-1.2-1.5-1-.7.1-.7.1-.7 1.1.1 1.6 1.1 1.6 1.1 1 .1.7 1.4 2.6 1 .1-.8.4-1.4.8-1.8-2.6-.3-5.3-1.3-5.3-5.8 0-1.3.5-2.4 1.2-3.2-.1-.3-.5-1.6.1-3.3 0 0 1-.3 3.3 1.3a11.4 11.4 0 0 1 6 0C17 5.2 18 5.5 18 5.5c.6 1.7.2 3 .1 3.3.8.8 1.2 1.9 1.2 3.2 0 4.5-2.7 5.5-5.3 5.8.5.4.9 1.2.9 2.4v3.5c0 .3.2.7.8.6A10.99 10.99 0 0 0 23.5 12C23.5 5.65 18.35.5 12 .5Z"/>
</svg>